<svg width="15" height="15" viewBox="0 0 15 15" fill="none" xmlns="http://www.w3.org/2000/svg">
<path d="M7.49984 1.83335C4.37022 1.83335 1.83317 4.37041 1.83317 7.50002C1.83317 10.6296 4.37022 13.1667 7.49984 13.1667C10.6295 13.1667 13.1665 10.6296 13.1665 7.50002C13.1665 4.37041 10.6295 1.83335 7.49984 1.83335ZM0.416504 7.50002C0.416504 3.588 3.58782 0.416687 7.49984 0.416687C11.4119 0.416687 14.5832 3.588 14.5832 7.50002C14.5832 11.412 11.4119 14.5834 7.49984 14.5834C3.58782 14.5834 0.416504 11.412 0.416504 7.50002ZM7.49984 3.25002C7.89104 3.25002 8.20817 3.56715 8.20817 3.95835V7.20662L10.1257 9.12415C10.4023 9.40077 10.4023 9.84927 10.1257 10.1259C9.84908 10.4025 9.40059 10.4025 9.12397 10.1259L6.99897 8.00089C6.86613 7.86805 6.7915 7.68788 6.7915 7.50002V3.95835C6.7915 3.56715 7.10864 3.25002 7.49984 3.25002Z" fill="#BDBDBD"/>
</svg>
