<svg width="19" height="13" viewBox="0 0 19 13" fill="none" xmlns="http://www.w3.org/2000/svg">
<path d="M12.125 6.5C12.125 7.94975 10.9497 9.125 9.5 9.125C8.05025 9.125 6.875 7.94975 6.875 6.5C6.875 5.05025 8.05025 3.875 9.5 3.875C10.9497 3.875 12.125 5.05025 12.125 6.5Z" fill="#BDBDBD"/>
<path d="M18.1576 6.10869C16.2692 2.3318 12.9152 0.375 9.5 0.375C6.08477 0.375 2.73082 2.3318 0.842376 6.10869C0.719208 6.35503 0.719208 6.64498 0.842376 6.89131C2.73082 10.6682 6.08477 12.625 9.5 12.625C12.9152 12.625 16.2692 10.6682 18.1576 6.89131C18.2808 6.64498 18.2808 6.35503 18.1576 6.10869ZM9.5 10.875C6.90231 10.875 4.2483 9.45682 2.61345 6.5C4.2483 3.54318 6.90231 2.125 9.5 2.125C12.0977 2.125 14.7517 3.54318 16.3866 6.5C14.7517 9.45682 12.0977 10.875 9.5 10.875Z" fill="#BDBDBD"/>
</svg>
