<svg width="18" height="18" viewBox="0 0 18 18" fill="none" xmlns="http://www.w3.org/2000/svg">
<g clip-path="url(#clip0_63_587)">
<path d="M12.877 0.27069L10.6763 0.26709C8.2039 0.26709 6.60611 1.93831 6.60611 4.52496V6.48812H4.3934C4.2022 6.48812 4.04736 6.64616 4.04736 6.84109V9.68549C4.04736 9.88042 4.20237 10.0383 4.3934 10.0383H6.60611V17.2156C6.60611 17.4105 6.76095 17.5684 6.95215 17.5684H9.83911C10.0303 17.5684 10.1851 17.4103 10.1851 17.2156V10.0383H12.7723C12.9635 10.0383 13.1184 9.88042 13.1184 9.68549L13.1194 6.84109C13.1194 6.74749 13.0829 6.65786 13.0181 6.59162C12.9533 6.52538 12.865 6.48812 12.7732 6.48812H10.1851V4.82393C10.1851 4.02404 10.3721 3.61799 11.3942 3.61799L12.8767 3.61744C13.0677 3.61744 13.2225 3.45941 13.2225 3.26466V0.623472C13.2225 0.428902 13.0679 0.27105 12.877 0.27069Z" fill="#8F8E94"/>
</g>
<defs>
<clipPath id="clip0_63_587">
<rect width="16.9708" height="17.3013" fill="white" transform="translate(0.149414 0.26709)"/>
</clipPath>
</defs>
</svg>
