<svg width="18" height="18" viewBox="0 0 18 18" fill="none" xmlns="http://www.w3.org/2000/svg">
<g clip-path="url(#clip0_63_572)">
<path d="M11.9545 0.26709H5.59047C2.66195 0.26709 0.287109 2.64193 0.287109 5.57045V11.9345C0.287109 14.863 2.66195 17.2378 5.59047 17.2378H11.9545C14.883 17.2378 17.2579 14.863 17.2579 11.9345V5.57045C17.2579 2.64193 14.883 0.26709 11.9545 0.26709ZM15.6669 11.9345C15.6669 13.9816 14.0016 15.6468 11.9545 15.6468H5.59047C3.54337 15.6468 1.87812 13.9816 1.87812 11.9345V5.57045C1.87812 3.52335 3.54337 1.8581 5.59047 1.8581H11.9545C14.0016 1.8581 15.6669 3.52335 15.6669 5.57045V11.9345Z" fill="#8F8E94"/>
<path d="M8.77247 4.50977C6.42945 4.50977 4.52979 6.40943 4.52979 8.75245C4.52979 11.0955 6.42945 12.9951 8.77247 12.9951C11.1155 12.9951 13.0152 11.0955 13.0152 8.75245C13.0152 6.40943 11.1155 4.50977 8.77247 4.50977ZM8.77247 11.4041C7.31087 11.4041 6.12079 10.2141 6.12079 8.75245C6.12079 7.28979 7.31087 6.10077 8.77247 6.10077C10.2341 6.10077 11.4242 7.28979 11.4242 8.75245C11.4242 10.2141 10.2341 11.4041 8.77247 11.4041Z" fill="#8F8E94"/>
<path d="M13.3334 4.75689C13.6456 4.75689 13.8987 4.50378 13.8987 4.19156C13.8987 3.87933 13.6456 3.62622 13.3334 3.62622C13.0212 3.62622 12.7681 3.87933 12.7681 4.19156C12.7681 4.50378 13.0212 4.75689 13.3334 4.75689Z" fill="#8F8E94"/>
</g>
<defs>
<clipPath id="clip0_63_572">
<rect width="16.9708" height="16.9708" fill="white" transform="translate(0.287109 0.26709)"/>
</clipPath>
</defs>
</svg>
