<svg width="22" height="22" viewBox="0 0 22 22" fill="none" xmlns="http://www.w3.org/2000/svg">
<path d="M9.16659 3.66667C6.12902 3.66667 3.66659 6.1291 3.66659 9.16667C3.66659 12.2042 6.12902 14.6667 9.16659 14.6667C12.2042 14.6667 14.6666 12.2042 14.6666 9.16667C14.6666 6.1291 12.2042 3.66667 9.16659 3.66667ZM1.83325 9.16667C1.83325 5.11658 5.1165 1.83333 9.16659 1.83333C13.2167 1.83333 16.4999 5.11658 16.4999 9.16667C16.4999 10.8613 15.9251 12.4217 14.9598 13.6635L19.8981 18.6018C20.2561 18.9598 20.2561 19.5402 19.8981 19.8982C19.5401 20.2562 18.9597 20.2562 18.6017 19.8982L13.6634 14.9599C12.4216 15.9252 10.8612 16.5 9.16659 16.5C5.1165 16.5 1.83325 13.2168 1.83325 9.16667Z" fill="#727272"/>
</svg>
