<svg width="18" height="18" viewBox="0 0 18 18" fill="none" xmlns="http://www.w3.org/2000/svg">
<g clip-path="url(#clip0_63_584)">
<path d="M16.1581 4.74353C15.976 4.06681 15.4425 3.53337 14.7659 3.35115C13.5298 3.01294 8.58534 3.01294 8.58534 3.01294C8.58534 3.01294 3.64107 3.01294 2.40497 3.33833C1.74137 3.52035 1.19482 4.06691 1.01279 4.74353C0.6875 5.97952 0.6875 8.54281 0.6875 8.54281C0.6875 8.54281 0.6875 11.119 1.01279 12.3421C1.19501 13.0187 1.72836 13.5522 2.40507 13.7344C3.65408 14.0727 8.58553 14.0727 8.58553 14.0727C8.58553 14.0727 13.5298 14.0727 14.7659 13.7473C15.4426 13.5652 15.976 13.0317 16.1583 12.3551C16.4835 11.119 16.4835 8.55583 16.4835 8.55583C16.4835 8.55583 16.4965 5.97952 16.1581 4.74353ZM7.01113 10.9109V6.17475L11.1227 8.54281L7.01113 10.9109Z" fill="#8F8E94"/>
</g>
<defs>
<clipPath id="clip0_63_584">
<rect width="16.8491" height="16.8491" fill="white" transform="translate(0.169434 0.26709)"/>
</clipPath>
</defs>
</svg>
